<?xml version="1.0" encoding="UTF-8"?><svg id="Layer_1" xmlns="http://www.w3.org/2000/svg" viewBox="0 0 612 612"><defs><style>.cls-1{fill:#fff;stroke-width:0px;}</style></defs><path class="cls-1" d="M383.63,59.57c.6.06,1.19.13,1.79.19,2.3,3.79,6.59,3.09,9.98,4.36,26.11,9.77,50.3,22.95,72.31,40.14,3.13,2.45,5.78,6.12,10.42,6.17.41.06.81.12,1.22.17,2.07-.13,3.19-1.05,2.79-3.28,0,0-.04.05-.04.05.68-.09.98-.46.82-1.15l.24.15s-.19-.2-.19-.2c2.04.13,2.42-1.11,2.28-2.78,0,0-.06.08-.06.08.64-.15.96-.54.92-1.2l.19.22s-.23-.18-.23-.18c.68-.06.96-.38.7-1.07,0,0,.2-.25.2-.25.96.19,1.26-.25,1.1-1.14.14-.23.28-.46.44-.67,1.74.24,1.79-.66,1.29-1.92,0,0,.11-.17.11-.17,1.4.16,1.42-.8,1.43-1.76.2-.28.4-.56.6-.85.71-.16,1.11-.54.95-1.32,0,0,.13-.15.13-.15.65.15.94,0,.55-.69.01-.23.12-.4.33-.5,1.56.42,1.34-.59,1.21-1.51l.29.25s-.31-.22-.31-.22c.69-.07.98-.42.77-1.11,0,0,.1-.15.1-.15,5.01-2.43,7.78-6.56,9.04-11.85l.27.38s-.24-.39-.24-.39c.72.02,1.02-.28.78-1,0,0,.14-.19.14-.19,1.92.09,3.15.42,3.6,2.93,2.47,13.65,5.81,27.11,9.32,40.53,2.45,9.39,3.82,19.07,7.5,28.14.15.24.2.5.16.78-.05,1.82,0,3.58.44,5.41,4.61,18.59,9.09,37.21,13.64,55.81,2.02,8.24,2.05,8.23-6.12,6.01-1.19-1.34-2.95-1.41-4.47-1.98-11.02-4.07-22.38-7.1-33.57-10.64-26.8-8.49-53.5-17.3-80.22-26.04-1.14-.37-3.05.27-3.29-1.53-.17-1.33,1.42-1.64,2.32-2.31,8.91-6.6,17.83-13.2,26.71-19.83,1.86-1.39,3.92-2.79,3.29-5.63-.62-2.82-7.73-8.08-11.26-8.43,0,0-.15-.1-.15-.1.47-1.42-.49-2.19-1.41-2.9-21.69-16.58-46.11-27.71-72.38-34.37-21.24-5.38-42.9-7.38-64.99-5.49-15.11,1.29-29.83,3.98-44.31,8.09-22.57,6.4-43.31,16.83-62.45,30.34-2.32,1.64-6.09,2.36-6.29,6.31,0,0-.16.12-.16.12-5.76,1.12-9.45,4.72-11.85,9.87,0,0-.14.1-.14.1-.75-.21-1.06.09-.98.85,0,0-.05.06-.05.06-1.76-.82-2.78.37-3.83,1.42-3.63,3.61-7.26,7.21-10.85,10.86-1.27,1.29-2.57,2.62-2.15,4.71,0,0-.06.08-.06.08-1.35-.28-1.42.62-1.45,1.57,0,0,.05-.05.05-.05-2.85.65-5.08,1.83-4.51,5.36,0,0-.1.14-.1.14-4.18,1.49-6.44,4.45-6.85,8.86,0,0-.12.17-.12.17-2.33-.28-2.55,1-2.07,2.8-.09-.09-.19-.19-.28-.28.09.09.18.19.28.28-5.31,3.18-7.69,8.22-8.9,14.01,0,0-.04.07-.04.07-2.98.47-3.44,2.39-2.84,4.93,0,0-.13.21-.14.21-1.84-.56-2.26.89-2.86,2.04-5.55,10.6-10.69,21.4-14.6,32.7-5.03,14.56-8.26,29.49-10.4,44.83-2.56,18.33-1.27,36.33,1.77,54.22,3.83,22.57,12.38,43.65,23.26,63.72,1.43,2.65,1.87,6.51,5.8,7.35,0,0,.05.09.05.09.52,4.78,2.39,8.72,6.89,11-.09.08-.18.16-.28.24.1-.07.2-.14.29-.21-.53,1.81-.2,3.01,2.03,2.9l-.39.14s.4-.09.4-.09c-.18.73.13,1.1.86,1.15l-.27.18s.24-.22.23-.22c-.31,1.73-.08,3.03,2.16,2.8,0,0,.09.11.09.11-.71,3.23,1.22,4.36,3.89,4.92,0,0,.09.1.09.1-.59,3.17,1.1,4.43,3.95,4.73,0,0,.18.24.18.24-.28.76,0,1.01.75.83,0,0,.13.14.13.15-.2.76.11,1.07.86.99-.1.05-.2.11-.31.16.11-.05.21-.09.32-.14-.11.73.21,1.09.94,1.11l-.35.22s.33-.25.33-.25c-.4,2.89,1.18,4.03,3.78,4.27,0,0-.05-.06-.05-.06.07.88.02,1.88,1.42,1.32.22.09.34.25.37.49-.05.19-.1.38-.14.57.19-.05.38-.1.56-.15.36.02.56.21.57.58-.05.2-.09.39-.14.59.2-.04.39-.08.59-.12.3.04.47.21.5.51-.37.72-.16.88.55.57.2.06.33.19.38.39-.3.72-.11.94.62.62.2.06.33.18.38.38-.3.71-.12.93.6.59,0,0,.38.29.38.29,1.38,4.28,4.04,7.23,8.6,8.18,0,0-.06-.04-.06-.04.05.72.42,1.05,1.14.94,0,0,0,0,0,0-.05.74.25,1.06,1,.81,0,0,.15.1.15.1-.3,1.37.62,1.42,1.56,1.44,0,0-.06-.05-.06-.05.08,2.18.94,3.37,3.32,2.66l-.41.19s.43-.16.43-.16c-.04.72.22,1.05.97.73,0,0,.3.19.3.19.18,3.5,2.32,4.58,5.46,4.42,0,0-.06-.04-.06-.04.01,1.62.73,2.26,2.33,1.65-.1.08-.2.16-.3.24.1-.07.21-.15.31-.22.28,2.42,1.32,3.76,3.98,2.81,0,0,.21.13.21.13-.47,1.14.11,2.06.96,2.54,6.11,3.47,11.52,8.25,18.56,9.96.3-.02.58.02.85.15.38.28.76.55,1.14.83,0,0-.06-.06-.06-.06.46,3.09,2.8,3.05,5.1,3.07.29-.03.57.03.83.17.5.77,1.27.88,2.09.82,0,0-.05-.04-.05-.04.27,2.91,2.49,1.9,4.13,2.05.28-.04.55,0,.81.1.41.3.81.59,1.22.89.28-.05.55,0,.79.16.88,1.84,2.47,2.03,4.24,1.82.27-.08.52-.05.76.09.39.3.78.6,1.18.9,0,0-.11-.1-.11-.1.64,1.44,1.91,1.14,3.08,1.09,0,0-.08-.06-.08-.06.38,1.24,1.29,1.73,2.49,2.15,19.82,6.97,40.25,10.87,61.19,11.95,17.81.91,35.44-.94,52.85-4.69,28.75-6.2,54.34-19.21,77.89-36.53,1.42-1.04,3.2-1.95,3.1-4.18.09.1.18.19.27.29-.09-.1-.17-.2-.26-.3,2.47.48,3.88-.33,3.75-3.05,0,0,.21-.15.21-.14.76.27,1.04-.03.91-.78,0,0,.1-.11.1-.11,3.13.55,4.51-.97,4.65-3.95.09-.17.23-.28.41-.32.71.36.88.15.58-.55.06-.19.18-.32.38-.37.73.3.96.07.72-.67,0,0,.25-.23.25-.23.76.25,1.03-.04.88-.79,0,0,.12-.13.12-.13,1.46.8,2.49.03,3.46-.95,3.48-3.48,6.95-6.96,10.43-10.43.97-.97,1.76-1.98,1.12-3.46l.29.05s-.29-.03-.28-.03c.75.04,1.08-.31.97-1.05.1.1.2.2.3.3-.1-.1-.2-.2-.3-.3.75.06,1.06-.24.81-.99,0,0,.12-.18.12-.18,2.85-.3,4.41-1.73,4.17-4.74l.25.21s-.28-.17-.28-.17c.72-.02,1.05-.38.96-1.11,0,0,0,0,0,0,.75.04,1.05-.27.81-1.02,0,0,.1-.15.1-.15,2.63-.01,3.65-1.27,2.96-3.84,0,0,.06-.08.06-.08,3.44-1.03,5.21-3.22,4.78-6.92,0,0,.17-.24.17-.24,1.51.33,1.41-.64,1.3-1.61,0,0-.06.08-.06.08.69-.12.99-.52.85-1.22,0,0,.04-.07.04-.07.48-.17.97-.33,1.45-.5.67-.7,1.49-1.31,2-2.12,6.72-10.65,12.69-21.68,17.76-33.25,9.74-22.23,15.38-45.33,16.22-69.59,0-9.03,0-18.06,0-27.1-1.68-8.42-1.82-17.08-3.85-25.46-.53-2.18.93-3.17,3.15-3.5,13.23-1.97,26.48-3.91,39.65-6.23,2.97-.52,3.67.67,3.96,2.8,1.74,12.61,4.03,25.16,4.1,37.94.04,7.83.02,15.65.02,23.48,0,2.68,0,5.37,0,8.05-.02.95-.04,1.9-.06,2.85-.01.38-.03.76-.04,1.14-2.29,5.24-1.88,10.97-2.83,16.45-3.05,17.69-7.4,34.97-14.1,51.65-.73,1.82-2.61,3.59-1.02,5.88-.1.34-.19.68-.29,1.02-1.29.1-2.1.79-2.59,1.98-6.29,15.16-14.54,29.24-23.63,42.86-.74,1.11-1.73,2.08-.94,3.57l-.32-.22s.28.26.28.26c-2.46.23-3.74,1.32-2.85,3.96,0,0-.12.18-.12.18-2.61.05-3.73,1.2-2.85,3.84,0,0-.14.19-.14.19-2.69-.09-3.57,1.28-3.05,3.78-.09-.1-.18-.19-.27-.29.08.1.17.2.25.3-5.64,2.87-8.54,8.32-12.22,13.03-.13.16.12.62.2.95l-.14-.4s.12.4.12.4c-.74-.04-1.06.29-.97,1.03-.08-.1-.16-.2-.24-.3.07.1.15.21.22.31-.75-.07-1.07.25-.92,1,0,0-.06.06-.07.06-.75-.12-1.06.18-.87.93,0,0-.13.13-.13.13-.74-.16-1.04.09-.78.85,0,0-.24.25-.24.25-.75-.24-.99,0-.7.74,0,0-.23.28-.23.28-4.71,1.85-7.91,5.23-9.93,9.81,0,0-.13.11-.13.11-5.4.52-7.41,5.11-10.33,8.61,0,0,.08-.08.08-.08-.77.19-1.73.16-2.29.62-7.1,5.84-14.62,11.09-22.22,16.25-1.63,1.11-3.99,1.81-4.58,4.21,0,0,.08-.08.08-.08-4.79.48-7.94,4.36-12.23,5.89-10.9,5.64-22,10.8-33.46,15.31-25.26,9.94-51.61,14.24-78.49,15.54-10.07.49-20.2.04-30.34-.61-13.93-.9-27.64-2.74-41.15-6-23.49-5.66-45.92-14.09-67.07-25.96-15.54-8.72-30.05-18.79-43.33-30.65-1.28-1.14-2.23-3.17-4.55-2.05,0,0-.15-.16-.15-.16.16-.71-.09-.99-.82-.76,0,0-.26-.25-.26-.26.21-.7,0-.94-.7-.65,0,0-.35-.27-.34-.27-1.87-4.65-5.11-7.93-9.79-9.76,0,0-.28-.36-.28-.36.3-.69.08-.89-.61-.66,0,0-.31-.31-.31-.31.26-.72,0-.97-.72-.78,0,0-.2-.2-.2-.2,1.08-2.04-.59-3.01-1.66-4.2-3.21-3.57-6.41-7.14-9.65-10.68-1.69-1.84-2.18-5.04-5.57-4.98,0,0-.12-.15-.12-.15-.14-3.99-1.94-6.74-5.86-7.93,0,0-.06-.08-.06-.08-1.62-6.11-5.01-11.05-9.92-14.99l.35-.28s-.38.25-.38.25c-.09-3.03-.52-5.87-3.99-6.95l.33-.23s-.36.19-.36.19c.82-2.22-.73-3.81-1.6-5.5-7.03-13.64-13.74-27.43-18.51-42.07-.39-1.19-.44-2.74-2.25-2.83-.08-.32-.16-.64-.25-.96,2.19-1.67.34-3.39-.07-4.95-5.53-21.37-9.73-42.94-9.83-65.12-.03-7.8.47-15.59.78-23.37.46-11.34,2.1-22.52,4.84-33.34,5.42-21.39,11.94-42.52,22.71-62.02.77-1.39,1.99-2.8,1.07-4.63,0,0,.04-.09.04-.09,1.46.07,1.39-.83,1.15-1.83l.27.37s-.28-.35-.28-.35c.9.02,1.63-.33,2.05-1.12,5.58-10.47,12.35-20.17,19.18-29.84.71-1,1.27-1.94.58-3.15,0,0,.09-.13.09-.13,4.29-1.41,6.2-4.67,6.9-8.87,0,0,.17-.18.17-.18.7.16.97-.06.69-.77.05-.18.17-.3.34-.36.69.25.92.04.66-.65,0,0,.24-.29.24-.29,3.06-.7,5.29-2.12,4.97-5.75,0,0,.1-.1.1-.1.72.1,1.01-.17.8-.89,0,0,.21-.22.21-.22.71.18.98-.04.71-.76,0,0,.31-.32.31-.32.67.23.92.05.61-.65,0,0,.29-.38.29-.38,6.09-3.11,10.55-7.88,13.9-13.76,0,0,.18-.14.18-.14.72.21,1.01-.07.91-.8,0,0,.08-.07.08-.07.71.12,1.06-.18,1.04-.9l.42.27s-.41-.28-.41-.28c2.41.46,3.41-.53,3.02-2.94l.26.24s-.23-.27-.23-.27c.87.31,1.68.34,2.29-.53,1.39-.9,2.9-1.65,4.14-2.72,20.11-17.48,43.05-30.2,67.52-40.41,18.43-7.7,37.76-12.13,57.29-15.7,14.19-2.59,28.65-3.41,43-2.97,8.44.26,16.88.54,25.33.63.59.06,1.19.12,1.78.18,2.24,1.76,4.81.62,7.23.82.29-.07.54-.02.78.17,1.87,1.7,4.12.66,6.2.85.59.03,1.19.06,1.78.09,3.99,2.86,8.57,3.05,13.22,2.91.28-.06.55,0,.79.16.86,1.17,2.09.88,3.26.83.28-.08.52-.03.74.16,1.15,1.41,2.7.83,4.13.84,0,0-.09-.08-.09-.08,1.81,2.67,4.55,2.13,7.15,2.1Z"/><path class="cls-1" d="M311.39,282.76c.69.21,1.38.42,2.07.63,5.01,3.37,10.24,6.43,14.58,10.72.13.13.61-.09.93-.15,0,0,.16.24.16.24-.78,3.72,1.29,6.21,4.28,7.26,2.89,1.01,6.19,1.16,9.31,1.12,39.58-.52,79.17,1.22,118.74-.87,6.5-.34,13.07-.51,19.48,1.2,0,0,.21.25.21.25-.03,3.65-.05,7.3-.08,10.94,0,0-.12.1-.13.1-.81-.21-1.12.12-1.01.92l-.36-.27s.33.3.33.3c-2.03-.79-3.86.51-5.86.53-23.26.23-46.51-.2-69.78.73-22.76.91-45.59.21-68.39.21-3.73,0-7.19.29-6.78,5.43,0,0-.11.18-.11.18-3.04-.19-3.91,2.68-5.75,4.16-5.84,4.67-12.43,7.17-19.81,5.64-11.41-2.36-22.68-10.94-21-26.39.41-3.79-.41-7.05-3.34-9.94-13.26-13.07-26.35-26.3-39.54-39.44-.98-.98-1.73-2.62-3.65-1.97,0,0-.08-.14-.07-.14.23-.81-.07-1.1-.87-.88,0,0-.1-.11-.1-.11.2-.81-.09-1.11-.9-.89,0,0-.1-.1-.1-.11.2-.81-.09-1.11-.9-.86,0,0-.14-.14-.13-.14.22-.8-.04-1.1-.85-.82,0,0-.19-.19-.19-.19.25-.8.01-1.07-.79-.76,0,0-.25-.26-.25-.26.28-.78.04-1.03-.74-.74,0,0-.26-.26-.26-.27.28-.78.04-1.03-.74-.73,0,0-.26-.27-.26-.27.31-.81.02-1.05-.77-.81,0,0-.15-.16-.15-.16.23-.81-.06-1.09-.86-.88,0,0-.1-.11-.1-.11.21-.81-.11-1.11-.91-.97.11-.06.21-.12.32-.18-.11.05-.22.1-.34.15.14-.8-.19-1.13-.98-.97.11-.06.21-.12.32-.18-.11.05-.22.1-.34.15.14-.79-.19-1.13-.98-1.02.05-.11.1-.23.16-.34-.04.12-.09.23-.13.35.1-.79-.24-1.13-1.02-1.01.06-.11.11-.23.17-.34-.05.12-.1.23-.14.35.1-.79-.24-1.13-1.03-1.01.06-.11.11-.23.17-.34-.05.12-.1.23-.14.35.1-.79-.24-1.13-1.03-1.01.05-.12.11-.23.16-.35-.05.12-.09.24-.14.35.1-.79-.24-1.13-1.02-1.01.06-.12.12-.23.18-.35-.05.12-.1.24-.16.35.1-.79-.24-1.12-1.03-.96.09-.07.19-.15.28-.22-.1.06-.2.13-.3.19.14-.8-.18-1.12-.98-.96.09-.07.18-.14.28-.21-.1.06-.2.12-.3.18.14-.8-.18-1.12-.98-.96l.39-.31s-.41.28-.41.28c.14-.8-.17-1.12-.97-.96l.29-.29s-.32.25-.32.25c.14-.79-.15-1.12-.95-.9,0,0-.1-.11-.1-.11.2-.8-.1-1.1-.9-.91,0,0-.13-.11-.13-.11.84-1.47-.05-2.43-.9-3.52-2.52-3.2-2.32-6.94.08-9.61,4.85-5.41,9.09-12.17,17.85-11.85,0,0,.04-.02.04-.02-.01,2.46,1.52,3.29,3.67,3.46,0,0-.05-.05-.05-.05.09.89.09,1.88,1.48,1.39,0,0,.2.28.2.28-.3.76-.1,1,.67.64.18.06.3.19.36.37-.33.76-.13.98.63.62.19.06.32.19.37.38-.33.76-.13.97.62.62.19.06.32.19.38.38-.33.76-.13.97.62.62.19.06.32.19.37.38-.33.76-.13.97.63.62,0,0,.34.26.34.26-.53,1.4.46,1.4,1.36,1.49,0,0-.05-.05-.05-.05.09.89.08,1.88,1.47,1.37,0,0,.22.3.22.3-.31.76-.11.99.65.64,0,0,.37.31.37.31-1.23,1.71.01,2.75,1.06,3.8,5.36,5.39,10.73,10.77,16.11,16.14.7.7,1.44,1.42,2.58.8,0,0,.19.27.19.27-.32.81-.02,1.05.77.84,0,0,.1.12.1.12-.21.81.12,1.12.92.97l-.43.13s.43-.12.43-.11c-.13.81.2,1.13,1,.98-.11.05-.22.1-.33.14.11-.04.22-.08.33-.12-.13.8.19,1.13,1,.98-.12.06-.23.12-.35.18.12-.05.24-.11.36-.16-.14.8.19,1.13.99.99l-.29.23s.28-.22.28-.22c-.13.8.21,1.13,1,1.01l-.08.33c.02-.11.04-.22.05-.33-.12.78.23,1.13,1,1.08,0,0-.07-.06-.07-.06-.06.76.3,1.12,1.06,1.11,0,0-.1-.09-.1-.09-.02.74.34,1.12,1.07,1.16,0,0-.06-.09-.06-.09,2.69,6.65,7.84,10.9,13.87,14.31.9.38,1.52,1.02,1.82,1.96.1.92.19,1.85,1.53,1.55l-.37-.03s.37.06.36.07c-.18.81.14,1.13.95.94,0,0,.05.06.05.07-.18.81.14,1.12.94.93,0,0,.05.07.05.07-.18.81.15,1.13.95,1l-.08.33s.07-.32.07-.32c-.12.8.22,1.14,1.01,1.02-.04.11-.08.21-.12.32.03-.11.06-.22.09-.33-.11.78.23,1.14,1.01,1.09,0,0-.08-.07-.08-.07-.05.76.31,1.13,1.06,1.11,0,0-.1-.09-.1-.09-.02.74.34,1.12,1.08,1.13,0,0-.11-.11-.11-.1,0,.73.38,1.1,1.11,1.1,0,0-.11-.11-.11-.1.01.74.38,1.1,1.12,1.07,0,0-.09-.08-.09-.08-.02.75.34,1.11,1.09,1.07l-.42.16s.4-.19.4-.19c.95,4.75,3.75,5.69,10.55,3.53ZM307.01,319.25c6.45.07,11.31-4.48,11.36-10.64.06-6.55-4.72-11.73-10.9-11.83-6.6-.1-11.76,4.97-11.74,11.54.02,5.99,5.05,10.86,11.28,10.93Z"/><path class="cls-1" d="M132,496.23c2.33-1.11,3.27.91,4.55,2.05,13.28,11.86,27.79,21.93,43.33,30.65,21.15,11.87,43.58,20.29,67.07,25.96,13.5,3.25,27.21,5.09,41.15,6,10.14.66,20.27,1.1,30.34.61,26.88-1.3,53.23-5.6,78.49-15.54,11.45-4.51,22.55-9.67,33.46-15.31.09.56.18,1.11.26,1.67-24.14,13.6-49.75,23.06-77.16,27.56-31.19,5.13-62.42,5.32-93.5-.26-48.36-8.69-90.89-29.61-127.4-62.6-.24-.22-.4-.52-.6-.79Z"/><path class="cls-1" d="M182.02,141.14c.2-3.95,3.97-4.67,6.29-6.31,19.14-13.51,39.88-23.94,62.45-30.34,14.47-4.11,29.2-6.79,44.31-8.09,22.08-1.89,43.75.11,64.99,5.49,26.27,6.66,50.69,17.79,72.38,34.37.92.7,1.88,1.48,1.41,2.9-24.8-18.46-52.3-31.09-82.58-37.29-35.1-7.19-69.78-5.02-104,5.56-23.78,7.35-45.22,19.14-65.25,33.72Z"/><path class="cls-1" d="M433,471.17c.1,2.23-1.68,3.14-3.1,4.18-23.55,17.32-49.14,30.33-77.89,36.53-17.41,3.76-35.04,5.61-52.85,4.69-20.94-1.07-41.37-4.98-61.19-11.95-1.2-.42-2.11-.91-2.49-2.15,11.58,2.01,22.5,6.6,34.12,8.57,13,2.21,26.05,3.25,39.22,3.54,19.91.44,39.47-2.63,58.24-8.49,23.32-7.29,44.87-18.73,64.26-33.88.52-.4,1.12-.7,1.69-1.04Z"/><path class="cls-1" d="M336.66,50.55c-8.45-.09-16.9-.37-25.33-.63-14.35-.43-28.81.38-43,2.97-19.53,3.57-38.86,8-57.29,15.7-24.46,10.22-47.4,22.94-67.52,40.41-1.24,1.07-2.75,1.82-4.13,2.72-.46-.08-.93-.16-1.39-.24,18.16-16.46,38.68-29.32,60.86-39.58,42.39-19.62,87.06-26.14,133.38-22.85,1.51.11,3.45-.42,4.43,1.5Z"/><path class="cls-1" d="M480.92,302.91c-6.41-1.72-12.98-1.55-19.48-1.2-39.57,2.1-79.16.35-118.74.87-3.12.04-6.42-.11-9.31-1.12-2.98-1.05-5.05-3.55-4.28-7.26,1.94,5.39,5.88,6.13,11.23,6.1,43.81-.23,87.62-.12,131.43-.09,3.27,0,6.77-.5,9.14,2.7Z"/><path class="cls-1" d="M127.95,412.12c-3.93-.84-4.37-4.7-5.8-7.35-10.88-20.08-19.44-41.15-23.26-63.72-3.04-17.9-4.33-35.89-1.77-54.22,2.14-15.35,5.38-30.28,10.4-44.83,3.9-11.3,9.05-22.1,14.6-32.7.6-1.15,1.03-2.6,2.86-2.04-10.8,19.79-18.91,40.58-23.56,62.68-6.95,33.02-4.31,65.39,6.1,97.37,5.13,15.76,12.55,30.37,20.44,44.81Z"/><path class="cls-1" d="M433.99,139.27c3.53.35,10.64,5.61,11.26,8.43.62,2.83-1.44,4.24-3.29,5.63-8.88,6.64-17.8,13.23-26.71,19.83-.9.67-2.5.97-2.32,2.31.23,1.8,2.15,1.16,3.29,1.53,26.72,8.74,53.42,17.55,80.22,26.04,11.19,3.54,22.55,6.57,33.57,10.64,1.52.56,3.29.63,4.47,1.98-.02.33-.04.65-.05.98-27.69-8.43-55.32-17.05-82.8-26.17-12.14-4.03-24.41-7.67-36.59-11.58-1.78-.57-4.42-.42-4.79-2.84-.37-2.44,2.27-3.03,3.76-4.16,9.44-7.1,18.87-14.21,28.49-21.06,2.79-1.98,2.02-2.92-.09-4.53-2.9-2.22-5.62-4.68-8.42-7.03Z"/><path class="cls-1" d="M77.84,187.23c.92,1.83-.3,3.23-1.07,4.63-10.77,19.5-17.29,40.62-22.71,62.02-2.74,10.83-4.38,22-4.84,33.34-.32,7.79-.82,15.57-.78,23.37.1,22.18,4.29,43.75,9.83,65.12.4,1.56,2.26,3.29.07,4.95-9.8-29.17-13.2-59.15-11.35-89.79,2.04-33.65,11.73-65.2,26.21-95.43,1.36-2.83,3.09-5.48,4.65-8.22Z"/><path class="cls-1" d="M329.08,322.05c-.41-5.15,3.05-5.43,6.78-5.43,22.8,0,45.62.71,68.39-.21,23.27-.93,46.52-.5,69.78-.73,1.99-.02,3.83-1.32,5.86-.53-2.16,2.4-5.03,2.18-7.88,2.21-44.83.4-89.66.82-134.48,1.26-3.22.03-6.84-.69-8.44,3.43Z"/><path class="cls-1" d="M563.45,318.61c0-7.83.02-15.65-.02-23.48-.07-12.79-2.36-25.34-4.1-37.94-.29-2.13-.99-3.32-3.96-2.8-13.17,2.33-26.42,4.26-39.65,6.23-2.22.33-3.68,1.33-3.15,3.5,2.03,8.38,2.17,17.04,3.85,25.46-.58.02-1.16.05-1.74.07-1.35-8.69-2.63-17.39-4.07-26.07-.47-2.83.68-3.86,3.33-4.27,14.13-2.2,28.24-4.5,42.36-6.78,1.89-.3,3.64-.6,4.12,2.09,3.81,21.18,6.13,42.46,4.61,64.02-.53-.01-1.05-.02-1.58-.04Z"/><path class="cls-1" d="M235.88,254.28c1.92-.65,2.67,1,3.65,1.97,13.19,13.14,26.28,26.38,39.54,39.44,2.93,2.89,3.75,6.15,3.34,9.94-1.68,15.45,9.59,24.03,21,26.39,7.39,1.53,13.97-.97,19.81-5.64,1.84-1.47,2.71-4.34,5.75-4.16-7.13,10.19-18.98,14.27-30.2,10.4-12.43-4.28-19.36-14.41-18.27-27.67.31-3.78-.8-6.08-3.32-8.61-13.86-13.93-27.54-28.03-41.29-42.07Z"/><path class="cls-1" d="M516.42,316.68c-.84,24.26-6.48,47.36-16.22,69.59-5.07,11.57-11.04,22.6-17.76,33.25-.51.81-1.33,1.42-2,2.12-.35,0-.69,0-1.04,0,14.59-22.77,25.82-46.95,31.44-73.56,2.19-10.39,2.98-20.95,4.22-31.46.45.02.9.04,1.35.06Z"/><path class="cls-1" d="M478.12,110.43c-4.64-.06-7.29-3.72-10.42-6.17-22.01-17.2-46.19-30.38-72.31-40.14-3.39-1.27-7.68-.57-9.98-4.36,11.29,2.31,21.63,7.19,32.06,11.83,22.17,9.89,42.11,23.27,60.65,38.84Z"/><path class="cls-1" d="M303.03,444.24c5.93-3.15,11.26-.43,11.4,6.08.2,8.96.15,17.94.03,26.9-.07,4.79-2.98,7.59-7.37,7.6-4.42,0-7.28-2.72-7.38-7.6-.18-8.8-.1-17.6-.13-26.41,0-2.26.63-4.24,2.37-5.76.15.21.31.4.48.58-2.17,10.22-.45,20.58-1.02,30.85-.23,4.1,1.3,6.27,5.72,6.19,4.23-.07,5.38-2.32,5.33-6.1-.1-8.33-.02-16.66-.04-25-.02-6.6-2.62-8.6-8.98-6.94-.14-.14-.28-.28-.42-.41Z"/><path class="cls-1" d="M534.43,216.63c.01-.33.03-.66.05-.98,8.17,2.22,8.13,2.23,6.12-6.01-4.55-18.6-9.04-37.22-13.64-55.81-.45-1.83-.49-3.59-.44-5.41,3.46,3.82,3.01,8.91,4.17,13.43,4.53,17.69,8.77,35.46,13.11,53.2.35,1.42,1.42,3.19.33,4.25-1.39,1.36-3.07-.31-4.58-.71-1.75-.47-3.41-1.28-5.12-1.95Z"/><path class="cls-1" d="M545.4,404.63c-1.59-2.28.29-4.05,1.02-5.88,6.7-16.68,11.06-33.96,14.1-51.65.94-5.48.54-11.21,2.83-16.45.07,15.45-3.12,30.37-7.3,45.14-2.8,9.9-6.18,19.56-10.65,28.84Z"/><path class="cls-1" d="M526.34,147.64c-3.69-9.06-5.05-18.75-7.5-28.14-3.51-13.42-6.85-26.88-9.32-40.53-.45-2.52-1.68-2.84-3.6-2.93.7-1.1,1.21-2.7,2.74-2.54,1.71.17,1.47,1.93,1.73,3.16,4.74,21.81,10.14,43.47,15.63,65.1.49,1.93.93,3.89.32,5.89Z"/><path class="cls-1" d="M130.82,312.25c-3.08-6.51-.11-11.68,7.05-11.79,9.1-.14,18.2.06,27.3.03,3.53-.01,6.09,1.54,7.44,4.64,1.28,2.93.99,5.84-1.62,8.14-.19-.22-.38-.44-.59-.64,2.23-8.2.92-9.98-7.35-9.99-7.82,0-15.64,0-23.46,0-7.77,0-9.01,1.37-8.16,8.99-.21.2-.42.41-.62.62Z"/><path class="cls-1" d="M312.15,171.22c-6.3,4.14-12.32,1.44-12.52-5.88-.25-8.97-.27-17.95-.01-26.92.18-6.22,6-9.2,10.94-5.93l-.19.22c-7.64-.19-8.94,1.08-8.94,8.76,0,7.27,0,14.55,0,21.82.01,7.27,2.82,9.32,9.96,7.29.24.23.49.44.76.63Z"/><path class="cls-1" d="M517.96,454.05c-.79-1.48.2-2.46.94-3.57,9.09-13.62,17.34-27.7,23.63-42.86.49-1.19,1.3-1.88,2.59-1.98-6.8,17.4-16.24,33.32-27.16,48.41Z"/><path class="cls-1" d="M58.58,381.64c1.81.09,1.86,1.64,2.25,2.83,4.77,14.64,11.47,28.42,18.51,42.07.87,1.68,2.42,3.28,1.6,5.5-9.5-15.89-17.18-32.59-22.36-50.39Z"/><path class="cls-1" d="M171,313.26c-1.57,2.04-3.76,2.45-6.17,2.44-8.76-.03-17.51-.01-26.27,0-3.1,0-5.91-.6-7.73-3.45.2-.22.4-.42.62-.62,12.9,3.85,25.94,2.08,38.97.99.21.21.4.42.59.64Z"/><path class="cls-1" d="M230.84,207.13c-8.76-.32-12.99,6.43-17.85,11.85-2.39,2.67-2.59,6.41-.08,9.61.85,1.08,1.74,2.05.9,3.52-5.86-5.86-5.99-10.33-.38-16.16,2.41-2.51,4.82-5.04,7.42-7.34,2.93-2.58,6.25-3.71,9.98-1.47Z"/><path class="cls-1" d="M310.55,132.5c3.37.66,3.84,3.34,3.87,6.02.09,8.97.03,17.93.02,26.9,0,2.23-.56,4.25-2.3,5.8-.27-.19-.52-.4-.76-.63.35-1.6.98-3.2,1-4.8.1-9.41,0-18.82.09-28.22.02-2.05-1.08-3.37-2.11-4.85l.19-.22Z"/><path class="cls-1" d="M442.53,524.85c.59-2.39,2.95-3.1,4.58-4.21,7.6-5.16,15.11-10.41,22.22-16.25.56-.46,1.52-.42,2.29-.62-4.52,5.92-10.96,9.56-16.87,13.72-3.85,2.72-7.15,6.59-12.22,7.35Z"/><path class="cls-1" d="M100.83,151.22c.68,1.21.13,2.15-.58,3.15-6.82,9.67-13.59,19.37-19.18,29.84-.42.78-1.15,1.14-2.05,1.12,5.79-12.31,13.53-23.39,21.81-34.1Z"/><path class="cls-1" d="M264.95,241.89c-1.13.62-1.87-.1-2.58-.8-5.38-5.37-10.75-10.75-16.11-16.14-1.04-1.05-2.29-2.1-1.06-3.8,6.58,6.91,13.16,13.83,19.75,20.74Z"/><path class="cls-1" d="M100.93,462.22c3.39-.06,3.88,3.14,5.57,4.98,3.24,3.53,6.44,7.11,9.65,10.68,1.07,1.19,2.74,2.16,1.66,4.2-6.14-6.18-11.97-12.63-16.88-19.86Z"/><path class="cls-1" d="M152.01,169.11c-.42-2.09.88-3.42,2.15-4.71,3.59-3.64,7.23-7.25,10.85-10.86,1.05-1.05,2.07-2.24,3.83-1.42-5.61,5.66-11.22,11.33-16.83,16.99Z"/><path class="cls-1" d="M209.58,490.59c-7.05-1.71-12.46-6.5-18.56-9.96-.85-.48-1.43-1.39-.96-2.54,6.55,4.1,13.43,7.68,19.52,12.5Z"/><path class="cls-1" d="M460.98,445.22c.64,1.48-.15,2.49-1.12,3.46-3.48,3.47-6.95,6.95-10.43,10.43-.97.97-2,1.74-3.46.95,5-4.95,10-9.89,15-14.84Z"/><path class="cls-1" d="M287.64,265.57c-6.03-3.41-11.18-7.67-13.87-14.31,5.05,4.35,9.43,9.37,13.87,14.31Z"/><path class="cls-1" d="M131.82,117.15c-3.36,5.88-7.81,10.64-13.9,13.76,4.16-5.06,8.68-9.76,13.9-13.76Z"/><path class="cls-1" d="M516.42,316.68c-.45-.02-.9-.04-1.35-.06l-.39-26.96c.58-.02,1.16-.04,1.74-.07,0,9.03,0,18.06,0,27.1Z"/><path class="cls-1" d="M328.97,293.96c-.32.06-.8.28-.93.15-4.34-4.29-9.57-7.35-14.58-10.72,6.88,1.01,11.67,5.09,15.51,10.57Z"/><path class="cls-1" d="M496.87,480.03c-.07-.32-.32-.78-.2-.95,3.68-4.71,6.58-10.16,12.22-13.03-3.48,5.12-7.4,9.85-12.02,13.97Z"/><path class="cls-1" d="M84.97,439.06c4.91,3.94,8.29,8.88,9.92,14.99-3.68-4.75-7.08-9.68-9.92-14.99Z"/><path class="cls-1" d="M127.99,202.05c1.21-5.78,3.59-10.83,8.9-14.01-2.97,4.67-5.93,9.34-8.9,14.01Z"/><path class="cls-1" d="M170.02,151.13c2.4-5.15,6.09-8.75,11.85-9.87-3.95,3.29-7.9,6.58-11.85,9.87Z"/><path class="cls-1" d="M430.66,532.32c-.09-.56-.18-1.11-.26-1.67,4.29-1.52,7.44-5.41,12.23-5.89-3.17,3.82-7.74,5.41-11.96,7.55Z"/><path class="cls-1" d="M504.97,77.24c-1.27,5.28-4.03,9.42-9.04,11.85,2.94-4.01,5.51-8.3,9.04-11.85Z"/><path class="cls-1" d="M482.01,495.13c2.02-4.58,5.22-7.96,9.93-9.81-2.89,3.69-6.03,7.14-9.93,9.81Z"/><path class="cls-1" d="M119.94,484.37c4.68,1.84,7.91,5.12,9.79,9.76-3.65-2.87-6.88-6.15-9.79-9.76Z"/><path class="cls-1" d="M367.65,55.55c-4.65.14-9.23-.05-13.22-2.91,4.55.33,9.17.33,13.22,2.91Z"/><path class="cls-1" d="M471.54,503.85c2.92-3.5,4.93-8.09,10.33-8.61-3.34,2.99-6.08,6.71-10.33,8.61Z"/><path class="cls-1" d="M311.39,282.76c-6.8,2.16-9.6,1.23-10.55-3.53,2.45,4.35,7.09,2.19,10.55,3.53Z"/><path class="cls-1" d="M134.89,423.21c-4.51-2.28-6.37-6.22-6.89-11,2.3,3.67,4.6,7.33,6.89,11Z"/><path class="cls-1" d="M169.78,462.29c-4.56-.95-7.21-3.9-8.6-8.18,2.87,2.73,5.73,5.45,8.6,8.18Z"/><path class="cls-1" d="M107.83,142.22c-.7,4.2-2.62,7.46-6.9,8.87,2.3-2.96,4.6-5.91,6.9-8.87Z"/><path class="cls-1" d="M139.09,185.06c.41-4.4,2.68-7.37,6.85-8.86-2.28,2.95-4.57,5.91-6.85,8.86Z"/><path class="cls-1" d="M481.05,314.1c.03-3.65.05-7.29.08-10.94,2.88,3.67,3.03,7.32-.08,10.94Z"/><path class="cls-1" d="M94.95,454.13c3.92,1.19,5.72,3.95,5.86,7.93-1.95-2.64-3.91-5.29-5.86-7.93Z"/><path class="cls-1" d="M383.63,59.57c-2.6.03-5.35.57-7.15-2.1,2.66-.22,5.15.11,7.15,2.1Z"/><path class="cls-1" d="M476.69,425.2c.43,3.71-1.34,5.89-4.78,6.92,1.59-2.31,3.19-4.61,4.78-6.92Z"/><path class="cls-1" d="M114.89,134.22c.32,3.63-1.91,5.05-4.97,5.75,1.66-1.92,3.31-3.83,4.97-5.75Z"/><path class="cls-1" d="M146.05,176.07c-.57-3.53,1.66-4.7,4.51-5.36-1.5,1.79-3,3.57-4.51,5.36Z"/><path class="cls-1" d="M80.96,432.07c3.47,1.09,3.9,3.92,3.99,6.95-1.33-2.32-2.66-4.64-3.99-6.95Z"/><path class="cls-1" d="M183.58,473.52c-3.14.16-5.28-.92-5.46-4.42,1.82,1.47,3.64,2.95,5.46,4.42Z"/><path class="cls-1" d="M563.45,318.61c.53.01,1.05.02,1.58.04.39,2.69-.11,5.33-.52,7.97-.35.02-.71.03-1.06.05,0-2.68,0-5.37,0-8.05Z"/><path class="cls-1" d="M352.64,52.56c-2.08-.18-4.32.85-6.2-.85,2.18-.53,4.38-1.29,6.2.85Z"/><path class="cls-1" d="M442.64,463.13c-.14,2.97-1.52,4.49-4.65,3.95,1.55-1.32,3.1-2.63,4.65-3.95Z"/><path class="cls-1" d="M143.91,435.11c-2.67-.55-4.6-1.69-3.89-4.92,1.3,1.64,2.59,3.28,3.89,4.92Z"/><path class="cls-1" d="M147.94,439.95c-2.85-.3-4.54-1.57-3.95-4.73,1.32,1.58,2.63,3.16,3.95,4.73Z"/><path class="cls-1" d="M467.06,438.27c.24,3.02-1.32,4.44-4.17,4.74,1.39-1.58,2.78-3.16,4.17-4.74Z"/><path class="cls-1" d="M345.67,51.55c-2.42-.2-4.99.94-7.23-.82,2.37.62,5.11-2.05,7.23.82Z"/><path class="cls-1" d="M154.58,447.54c-2.6-.24-4.18-1.38-3.78-4.27,1.26,1.42,2.52,2.85,3.78,4.27Z"/><path class="cls-1" d="M125.11,207.04c-.6-2.54-.14-4.45,2.84-4.93-.95,1.64-1.89,3.28-2.84,4.93Z"/><path class="cls-1" d="M216.61,494.57c-2.3-.02-4.65.02-5.1-3.07,2.02.49,3.95,1.14,5.1,3.07Z"/><path class="cls-1" d="M512.1,462.07c-.88-2.64.24-3.8,2.85-3.84-.95,1.28-1.9,2.56-2.85,3.84Z"/><path class="cls-1" d="M189.85,477.96c-2.66.95-3.7-.39-3.98-2.81,1.33.94,2.65,1.88,3.98,2.81Z"/><path class="cls-1" d="M471.85,432.2c.69,2.57-.33,3.83-2.96,3.84.99-1.28,1.97-2.56,2.96-3.84Z"/><path class="cls-1" d="M436.76,468.11c.13,2.71-1.28,3.53-3.75,3.05,1.25-1.02,2.5-2.03,3.75-3.05Z"/><path class="cls-1" d="M234.54,210.57c-2.15-.17-3.68-1-3.67-3.46,1.65.7,2.78,1.95,3.67,3.46Z"/><path class="cls-1" d="M508.91,466.04c-.52-2.5.36-3.87,3.05-3.78-1.02,1.26-2.03,2.52-3.05,3.78Z"/><path class="cls-1" d="M515.07,458.05c-.89-2.64.39-3.73,2.85-3.96-.95,1.32-1.9,2.64-2.85,3.96Z"/><path class="cls-1" d="M137.07,112.29c.39,2.41-.61,3.41-3.02,2.94,1.01-.98,2.01-1.96,3.02-2.94Z"/><path class="cls-1" d="M376.57,57.54c-1.43-.02-2.98.57-4.13-.84,1.51-.36,3.14-1.36,4.13.84Z"/><path class="cls-1" d="M176.84,468.15c-2.39.71-3.25-.48-3.32-2.66,1.11.89,2.22,1.77,3.32,2.66Z"/><path class="cls-1" d="M482.13,107.33c.4,2.23-.72,3.15-2.79,3.28.93-1.09,1.86-2.19,2.79-3.28Z"/><path class="cls-1" d="M230.67,500.55c-1.76.21-3.36.02-4.24-1.82,1.79-.27,3.21.32,4.24,1.82Z"/><path class="cls-1" d="M563.45,326.66c.35-.02.71-.03,1.06-.05.8,1.42-.37,2.08-1.12,2.9.02-.95.04-1.9.06-2.85Z"/><path class="cls-1" d="M223.61,497.58c-1.64-.15-3.85.86-4.13-2.05,1.62.18,3.05.77,4.13,2.05Z"/><path class="cls-1" d="M371.7,56.54c-1.17.05-2.4.34-3.26-.83,1.21-.23,2.64-1.3,3.26.83Z"/><path class="cls-1" d="M136.9,188.03c-.48-1.8-.26-3.07,2.07-2.8-.69.93-1.38,1.87-2.07,2.8Z"/><path class="cls-1" d="M485.23,103.4c.14,1.66-.23,2.9-2.28,2.78.76-.93,1.52-1.85,2.28-2.78Z"/><path class="cls-1" d="M136.93,426.13c-2.22.12-2.55-1.09-2.03-2.9.68.97,1.35,1.93,2.03,2.9Z"/><path class="cls-1" d="M139.93,430.09c-2.23.23-2.47-1.07-2.16-2.8.72.93,1.44,1.87,2.16,2.8Z"/><path class="cls-1" d="M185.85,475.13c-1.6.61-2.31-.02-2.33-1.65.78.55,1.55,1.1,2.33,1.65Z"/><path class="cls-1" d="M235.57,502.54c-1.17.05-2.44.35-3.08-1.09,1.01.42,2.48-.48,3.08,1.09Z"/><path class="cls-1" d="M242.53,218.57c-.9-.09-1.9-.09-1.36-1.49.45.5.91.99,1.36,1.49Z"/><path class="cls-1" d="M150.51,170.76c.03-.94.1-1.85,1.45-1.57-.48.52-.97,1.04-1.45,1.57Z"/><path class="cls-1" d="M173.57,465.54c-.95-.02-1.86-.07-1.56-1.44.52.48,1.04.96,1.56,1.44Z"/><path class="cls-1" d="M79.04,185.31c.24,1,.31,1.9-1.15,1.83.38-.61.77-1.22,1.15-1.83Z"/><path class="cls-1" d="M155.95,448.81c-1.41.56-1.35-.44-1.42-1.32.47.44.95.88,1.42,1.32Z"/><path class="cls-1" d="M290.98,269.08c-1.33.3-1.43-.63-1.53-1.55.51.52,1.02,1.03,1.53,1.55Z"/><path class="cls-1" d="M243.96,219.9c-1.39.51-1.38-.48-1.47-1.37.49.46.98.91,1.47,1.37Z"/><path class="cls-1" d="M137.99,111.48c.46.08.93.16,1.39.24-.6.87-1.41.84-2.29.53.3-.26.6-.52.89-.78Z"/><path class="cls-1" d="M478.16,423.35c.1.97.21,1.95-1.3,1.61.43-.54.87-1.08,1.3-1.61Z"/><path class="cls-1" d="M489.78,97.27c.5,1.26.45,2.16-1.29,1.92.43-.64.86-1.28,1.29-1.92Z"/><path class="cls-1" d="M219.53,495.57c-.83.05-1.59-.05-2.09-.82.88-.2,1.7-.21,2.09.82Z"/><path class="cls-1" d="M491.32,95.34c0,.97-.03,1.92-1.43,1.76.48-.59.95-1.18,1.43-1.76Z"/><path class="cls-1" d="M495.09,90.32c.12.93.34,1.93-1.21,1.51.4-.5.81-1.01,1.21-1.51Z"/><path class="cls-1" d="M235.97,211.9c-1.39.5-1.39-.49-1.48-1.39.49.46.98.92,1.48,1.39Z"/><path class="cls-1" d="M239.83,215.82c-.76.36-.96.14-.62-.62.28.14.49.34.62.62Z"/><path class="cls-1" d="M226.95,245.25c.8-.21,1.1.08.86.88-.29-.29-.58-.59-.86-.88Z"/><path class="cls-1" d="M237.83,213.82c-.76.36-.96.14-.63-.62.28.14.49.34.63.62Z"/><path class="cls-1" d="M236.83,212.83c-.77.36-.97.12-.67-.64.31.13.53.35.67.64Z"/><path class="cls-1" d="M240.83,216.82c-.76.35-.96.14-.63-.62.28.14.49.35.63.62Z"/><path class="cls-1" d="M232.6,501.54c-.39-.3-.78-.6-1.18-.9.85-.31.95.38,1.18.9Z"/><path class="cls-1" d="M225.64,498.57c-.41-.3-.81-.59-1.22-.89.85-.31.97.37,1.22.89Z"/><path class="cls-1" d="M131.03,495.31c.72-.23.97.05.82.76-.27-.25-.54-.51-.82-.76Z"/><path class="cls-1" d="M130.07,494.4c.7-.29.91-.05.7.65-.23-.22-.47-.43-.7-.65Z"/><path class="cls-1" d="M211.57,491.56c-.38-.28-.76-.55-1.14-.83.76-.26.92.33,1.14.83Z"/><path class="cls-1" d="M492.17,485.03c-.29-.74-.04-.98.7-.74-.23.25-.47.49-.7.74Z"/><path class="cls-1" d="M493.11,484.05c-.26-.76.03-1.01.78-.85-.26.28-.52.57-.78.85Z"/><path class="cls-1" d="M119.05,483.36c.69-.23.91-.03.61.66-.32-.11-.52-.33-.61-.66Z"/><path class="cls-1" d="M494.02,483.07c-.19-.76.12-1.05.87-.93-.29.31-.58.62-.87.93Z"/><path class="cls-1" d="M118.01,482.27c.72-.19.98.06.72.78-.24-.26-.48-.52-.72-.78Z"/><path class="cls-1" d="M494.95,482.07c-.15-.75.17-1.07.92-1-.3.33-.61.67-.92,1Z"/><path class="cls-1" d="M495.88,481.06c-.1-.74.23-1.07.97-1.03-.32.34-.64.69-.97,1.03Z"/><path class="cls-1" d="M177.82,468.91c-.74.32-1,0-.97-.73.32.24.64.48.97.73Z"/><path class="cls-1" d="M168.9,152.07c-.08-.75.23-1.06.98-.85-.33.28-.66.56-.98.85Z"/><path class="cls-1" d="M437.89,467.18c.13.76-.15,1.05-.91.78.3-.26.61-.52.91-.78Z"/><path class="cls-1" d="M108.69,141.27c.29.72,0,.93-.69.77.23-.26.46-.52.69-.77Z"/><path class="cls-1" d="M171.86,463.99c-.76.25-1.05-.07-1-.81.34.27.67.54,1,.81Z"/><path class="cls-1" d="M109.68,140.26c.26.7.03.9-.66.65.1-.34.32-.55.66-.65Z"/><path class="cls-1" d="M443.63,462.26c.3.7.13.91-.58.55.13-.25.33-.43.58-.55Z"/><path class="cls-1" d="M170.86,463.19c-.73.11-1.1-.22-1.14-.94.38.31.76.63,1.14.94Z"/><path class="cls-1" d="M115.79,133.23c.21.72-.08,1-.8.89.26-.3.53-.6.8-.89Z"/><path class="cls-1" d="M444.73,461.21c.24.74.01.97-.72.67.24-.22.48-.45.72-.67Z"/><path class="cls-1" d="M266.92,244.11c-.8.14-1.13-.16-.92-.97.31.32.61.65.92.97Z"/><path class="cls-1" d="M445.86,460.19c.15.76-.13,1.04-.88.79.29-.26.59-.53.88-.79Z"/><path class="cls-1" d="M160.8,453.82c-.72.33-.9.11-.6-.59.28.12.48.32.6.59Z"/><path class="cls-1" d="M116.71,132.25c.26.72,0,.95-.71.76.24-.25.47-.51.71-.76Z"/><path class="cls-1" d="M117.63,131.28c.31.7.06.87-.61.65.09-.32.3-.54.61-.65Z"/><path class="cls-1" d="M159.81,452.84c-.73.32-.92.1-.62-.62.29.12.5.33.62.62Z"/><path class="cls-1" d="M158.81,451.83c-.7.31-.92.15-.55-.57.24.13.42.33.55.57Z"/><path class="cls-1" d="M157.76,450.75c-.2.04-.39.08-.59.12.05-.19.09-.39.14-.59.17.14.32.29.45.46Z"/><path class="cls-1" d="M156.74,449.71c-.19.05-.38.1-.56.15.05-.19.09-.38.14-.57.15.13.29.27.42.42Z"/><path class="cls-1" d="M461.96,444.19c.11.75-.22,1.09-.97,1.05.32-.35.65-.7.97-1.05Z"/><path class="cls-1" d="M301.95,445.05c.36-.27.72-.54,1.08-.81.14.14.28.27.42.41-.34.33-.67.66-1.01.98-.17-.18-.33-.38-.48-.58Z"/><path class="cls-1" d="M462.77,443.19c.26.76-.06,1.05-.81.99.27-.33.54-.66.81-.99Z"/><path class="cls-1" d="M244.83,220.84c-.76.34-.97.12-.65-.64.3.13.52.35.65.64Z"/><path class="cls-1" d="M150.82,443.3c-.73-.02-1.05-.38-.94-1.11.31.37.63.74.94,1.11Z"/><path class="cls-1" d="M149.87,442.16c-.76.08-1.07-.23-.86-.99.29.33.58.66.86.99Z"/><path class="cls-1" d="M148.87,441.03c-.76.18-1.03-.07-.75-.83.25.28.5.56.75.83Z"/><path class="cls-1" d="M132.91,116.21c.1.72-.18,1.01-.91.8.3-.27.61-.53.91-.8Z"/><path class="cls-1" d="M134.04,115.24c.01.72-.33,1.02-1.04.9.35-.3.69-.6,1.04-.9Z"/><path class="cls-1" d="M467.98,437.21c.1.73-.23,1.09-.96,1.11.32-.37.64-.74.96-1.11Z"/><path class="cls-1" d="M468.79,436.2c.25.75-.06,1.06-.81,1.02.27-.34.54-.68.81-1.02Z"/><path class="cls-1" d="M137.81,427.33c-.73-.05-1.04-.41-.86-1.15.29.38.58.76.86,1.15Z"/><path class="cls-1" d="M478.96,422.21c.14.7-.16,1.1-.85,1.22.28-.41.57-.81.85-1.22Z"/><path class="cls-1" d="M482.92,106.23c.16.69-.14,1.06-.82,1.15.27-.38.55-.77.82-1.15Z"/><path class="cls-1" d="M479.41,421.63c.35,0,.69,0,1.04,0-.48.17-.96.34-1.45.5-.02-.3.12-.46.41-.51Z"/><path class="cls-1" d="M213.95,232.21c.8-.19,1.1.11.9.91-.3-.3-.6-.61-.9-.91Z"/><path class="cls-1" d="M214.96,233.24c.8-.22,1.1.1.95.9-.32-.3-.64-.6-.95-.9Z"/><path class="cls-1" d="M215.95,234.18c.8-.16,1.12.16.97.96-.32-.32-.65-.64-.97-.96Z"/><path class="cls-1" d="M486.1,102.28c.03.66-.29,1.05-.92,1.2.31-.4.62-.8.92-1.2Z"/><path class="cls-1" d="M486.75,101.26c.27.68-.02,1-.7,1.07.23-.36.46-.71.7-1.07Z"/><path class="cls-1" d="M216.94,235.17c.8-.16,1.12.16.98.96-.33-.32-.65-.64-.98-.96Z"/><path class="cls-1" d="M217.94,236.17c.8-.16,1.12.17.98.96-.33-.32-.65-.64-.98-.96Z"/><path class="cls-1" d="M218.94,237.17c.79-.17,1.12.16,1.03.96-.34-.32-.68-.64-1.03-.96Z"/><path class="cls-1" d="M488.06,99.87c.16.89-.14,1.33-1.1,1.14.37-.38.73-.76,1.1-1.14Z"/><path class="cls-1" d="M479.92,315.12c-.11-.8.21-1.13,1.01-.92-.34.31-.67.61-1.01.92Z"/><path class="cls-1" d="M219.95,238.12c.79-.12,1.13.22,1.02,1.01-.34-.33-.68-.67-1.02-1.01Z"/><path class="cls-1" d="M220.95,239.12c.79-.12,1.13.22,1.03,1.01-.34-.33-.68-.67-1.03-1.01Z"/><path class="cls-1" d="M492.87,93.18c.16.78-.23,1.16-.95,1.32.32-.44.63-.88.95-1.32Z"/><path class="cls-1" d="M221.95,240.11c.79-.12,1.13.22,1.03,1.01-.34-.33-.68-.67-1.03-1.01Z"/><path class="cls-1" d="M222.95,241.11c.79-.12,1.13.22,1.02,1.01-.34-.33-.68-.67-1.02-1.01Z"/><path class="cls-1" d="M223.95,242.12c.79-.11,1.12.22.98,1.02-.33-.34-.65-.68-.98-1.02Z"/><path class="cls-1" d="M493.54,92.34c.39.69.1.83-.55.69.06-.33.24-.56.55-.69Z"/><path class="cls-1" d="M224.94,243.16c.8-.16,1.12.17.98.97-.33-.32-.66-.65-.98-.97Z"/><path class="cls-1" d="M300.85,279.27c-.75.04-1.11-.32-1.09-1.07.36.36.73.71,1.09,1.07Z"/><path class="cls-1" d="M299.86,278.28c-.74.03-1.11-.34-1.12-1.07.37.36.75.72,1.12,1.07Z"/><path class="cls-1" d="M298.85,277.31c-.73,0-1.1-.37-1.11-1.1.37.37.74.74,1.11,1.1Z"/><path class="cls-1" d="M297.85,276.31c-.74,0-1.1-.38-1.08-1.13.36.37.72.75,1.08,1.13Z"/><path class="cls-1" d="M296.87,275.28c-.76.02-1.12-.35-1.06-1.11.35.37.71.74,1.06,1.11Z"/><path class="cls-1" d="M495.83,89.23c.21.69-.08,1.04-.77,1.11.25-.37.51-.74.77-1.11Z"/><path class="cls-1" d="M295.89,274.23c-.78.05-1.12-.31-1.01-1.09.34.36.67.73,1.01,1.09Z"/><path class="cls-1" d="M294.92,273.15c-.79.12-1.14-.22-1.01-1.02.34.34.67.68,1.01,1.02Z"/><path class="cls-1" d="M293.92,272.12c-.8.13-1.13-.18-.95-1,.32.33.63.66.95,1Z"/><path class="cls-1" d="M505.79,76.23c.23.72-.07,1.02-.78,1,.26-.33.52-.67.78-1Z"/><path class="cls-1" d="M292.92,271.06c-.81.19-1.12-.12-.94-.93.32.31.63.62.94.93Z"/><path class="cls-1" d="M291.92,270.05c-.81.19-1.12-.12-.95-.94.32.31.63.62.95.94Z"/><path class="cls-1" d="M265.91,243.01c-.79.2-1.09-.03-.77-.84.26.28.51.56.77.84Z"/><path class="cls-1" d="M234.94,253.26c.81-.22,1.1.07.87.88-.29-.29-.58-.59-.87-.88Z"/><path class="cls-1" d="M225.94,244.17c.8-.15,1.12.16.91.97-.3-.32-.61-.64-.91-.97Z"/><path class="cls-1" d="M233.93,252.25c.81-.22,1.11.08.9.89-.3-.3-.6-.59-.9-.89Z"/><path class="cls-1" d="M273.83,251.35c-.73-.04-1.09-.42-1.07-1.16.36.39.71.77,1.07,1.16Z"/><path class="cls-1" d="M232.94,251.28c.81-.25,1.1.06.9.86-.3-.29-.6-.58-.9-.86Z"/><path class="cls-1" d="M272.87,250.28c-.76.02-1.11-.35-1.06-1.11.35.37.7.74,1.06,1.11Z"/><path class="cls-1" d="M231.95,250.32c.81-.27,1.08.02.85.82-.29-.27-.57-.55-.85-.82Z"/><path class="cls-1" d="M271.88,249.23c-.78.05-1.12-.3-1-1.08.33.36.67.72,1,1.08Z"/><path class="cls-1" d="M230.98,249.37c.8-.32,1.04-.04.79.76-.26-.25-.53-.5-.79-.76Z"/><path class="cls-1" d="M270.91,248.15c-.79.12-1.13-.22-1-1.01.33.34.67.67,1,1.01Z"/><path class="cls-1" d="M229.98,248.37c.78-.3,1.02-.05.74.74-.25-.24-.5-.49-.74-.74Z"/><path class="cls-1" d="M269.91,247.12c-.8.14-1.13-.19-.99-.99.33.33.66.66.99.99Z"/><path class="cls-1" d="M228.99,247.37c.78-.3,1.02-.05.74.73-.25-.24-.49-.49-.74-.73Z"/><path class="cls-1" d="M268.92,246.1c-.8.15-1.13-.18-1-.98.33.32.66.65,1,.98Z"/><path class="cls-1" d="M227.96,246.29c.79-.24,1.08,0,.77.81-.26-.27-.51-.54-.77-.81Z"/><path class="cls-1" d="M267.92,245.11c-.8.15-1.13-.18-1-.98.33.33.67.65,1,.98Z"/><path class="cls-1" d="M238.83,214.82c-.76.36-.96.14-.62-.62.28.14.49.34.62.62Z"/><path class="cls-1" d="M302.43,445.64c.34-.33.67-.66,1.01-.98,6.37-1.66,8.97.34,8.98,6.94.02,8.33-.07,16.67.04,25,.05,3.78-1.1,6.03-5.33,6.1-4.42.07-5.95-2.1-5.72-6.19.57-10.28-1.15-20.63,1.02-30.85Z"/><path class="cls-1" d="M170.41,312.62c-13.03,1.09-26.07,2.86-38.97-.99-.85-7.63.39-8.99,8.16-8.99,7.82,0,15.64,0,23.46,0,8.27,0,9.59,1.78,7.35,9.99Z"/><path class="cls-1" d="M310.36,132.72c1.03,1.47,2.13,2.8,2.11,4.85-.1,9.41,0,18.82-.09,28.22-.02,1.6-.65,3.2-1,4.8-7.14,2.03-9.95-.02-9.96-7.29-.01-7.27,0-14.55,0-21.82,0-7.68,1.31-8.95,8.94-8.76Z"/></svg>